# xmcd
#
# Track frame offsets: 
#        150
#        13789
#        27976
#        42072
#        54331
#        78198
#        91660
#        109310
#        125062
#        144582
#        157420
#        175657
#        189682
#        206317
#
# Disc length: 2956 seconds
#
# Revision: 0
# Processed by: cddbd v1.5.2PL0 Copyright (c) Steve Scherf et al.
# Submitted via: ExactAudioCopy v0.99pb3
#
DISCID=b70b8a0e
DTITLE=I Was a Teenage Satan Worshipper - whatevernights
DYEAR=2007
DGENRE=Indie
TTITLE0=BuNNies
TTITLE1=Heavy Metal Nation
TTITLE2=Boys are Pigs
TTITLE3=Heatwave
TTITLE4=(lost hours)
TTITLE5=the poppers song
TTITLE6=Dream People
TTITLE7=DRoP YOUR gUN!
TTITLE8=Hands off the Wheel
TTITLE9=This boy can't
TTITLE10=War in Europe
TTITLE11=Johnny from the Dark Side
TTITLE12=Hags in black leather jackets
TTITLE13=Happy Hearts
EXTD=
EXTT0=
EXTT1=
EXTT2=
EXTT3=
EXTT4=
EXTT5=
EXTT6=
EXTT7=
EXTT8=
EXTT9=
EXTT10=
EXTT11=
EXTT12=
EXTT13=
PLAYORDER=
